<svg xmlns="http://www.w3.org/2000/svg" width="19" height="19" viewBox="0 0 19 19" fill="none">
  <path d="M7.9165 9.5C7.9165 9.91993 8.08332 10.3227 8.38025 10.6196C8.67718 10.9165 9.07991 11.0833 9.49984 11.0833C9.91976 11.0833 10.3225 10.9165 10.6194 10.6196C10.9164 10.3227 11.0832 9.91993 11.0832 9.5C11.0832 9.08008 10.9164 8.67735 10.6194 8.38042C10.3225 8.08348 9.91976 7.91667 9.49984 7.91667C9.07991 7.91667 8.67718 8.08348 8.38025 8.38042C8.08332 8.67735 7.9165 9.08008 7.9165 9.5Z" stroke="#2C3E50" stroke-width="0.916667" stroke-linecap="round" stroke-linejoin="round"/>
  <path d="M16.625 9.5C14.725 12.6667 12.35 14.25 9.5 14.25C6.65 14.25 4.275 12.6667 2.375 9.5C4.275 6.33333 6.65 4.75 9.5 4.75C12.35 4.75 14.725 6.33333 16.625 9.5Z" stroke="#2C3E50" stroke-width="0.916667" stroke-linecap="round" stroke-linejoin="round"/>
</svg>