<svg xmlns="http://www.w3.org/2000/svg" width="19" height="19" viewBox="0 0 19 19" fill="none">
  <path d="M3.1665 5.54166H15.8332" stroke="#FF0000" stroke-width="0.916667" stroke-linecap="round" stroke-linejoin="round"/>
  <path d="M7.9165 8.70834V13.4583" stroke="#FF0000" stroke-width="0.916667" stroke-linecap="round" stroke-linejoin="round"/>
  <path d="M11.0835 8.70834V13.4583" stroke="#FF0000" stroke-width="0.916667" stroke-linecap="round" stroke-linejoin="round"/>
  <path d="M3.9585 5.54166L4.75016 15.0417C4.75016 15.4616 4.91698 15.8643 5.21391 16.1612C5.51084 16.4582 5.91357 16.625 6.3335 16.625H12.6668C13.0868 16.625 13.4895 16.4582 13.7864 16.1612C14.0833 15.8643 14.2502 15.4616 14.2502 15.0417L15.0418 5.54166" stroke="#FF0000" stroke-width="0.916667" stroke-linecap="round" stroke-linejoin="round"/>
  <path d="M7.125 5.54167V3.16667C7.125 2.9567 7.20841 2.75534 7.35687 2.60687C7.50534 2.45841 7.7067 2.375 7.91667 2.375H11.0833C11.2933 2.375 11.4947 2.45841 11.6431 2.60687C11.7916 2.75534 11.875 2.9567 11.875 3.16667V5.54167" stroke="#FF0000" stroke-width="0.916667" stroke-linecap="round" stroke-linejoin="round"/>
</svg>