<svg xmlns="http://www.w3.org/2000/svg" width="19" height="19" viewBox="0 0 19 19" fill="none">
  <path d="M3.1665 15.8333H6.33317L14.6457 7.52083C14.8536 7.31291 15.0185 7.06606 15.1311 6.79439C15.2436 6.52273 15.3015 6.23155 15.3015 5.9375C15.3015 5.64345 15.2436 5.35228 15.1311 5.08061C15.0185 4.80894 14.8536 4.56209 14.6457 4.35417C14.4377 4.14624 14.1909 3.9813 13.9192 3.86878C13.6476 3.75625 13.3564 3.69833 13.0623 3.69833C12.7683 3.69833 12.4771 3.75625 12.2054 3.86878C11.9338 3.9813 11.6869 4.14624 11.479 4.35417L3.1665 12.6667V15.8333Z" stroke="#2C3E50" stroke-width="0.916667" stroke-linecap="round" stroke-linejoin="round"/>
  <path d="M10.6875 5.14583L13.8542 8.3125" stroke="#2C3E50" stroke-width="0.916667" stroke-linecap="round" stroke-linejoin="round"/>
</svg>